{
	"asset":{
		"generator":"Khronos glTF Blender I/O v4.3.47",
		"version":"2.0"
	},
	"scene":0,
	"scenes":[
		{
			"name":"Scene",
			"nodes":[
				0
			]
		}
	],
	"nodes":[
		{
			"mesh":0,
			"name":"Mesh_0"
		}
	],
	"materials":[
		{
			"doubleSided":true,
			"name":"Material_0",
			"pbrMetallicRoughness":{
				"baseColorTexture":{
					"index":0
				},
				"metallicFactor":0,
				"roughnessFactor":0.800000011920929
			}
		}
	],
	"meshes":[
		{
			"name":"Mesh_0",
			"primitives":[
				{
					"attributes":{
						"POSITION":0,
						"NORMAL":1,
						"TEXCOORD_0":2
					},
					"indices":3,
					"material":0
				}
			]
		}
	],
	"textures":[
		{
			"sampler":0,
			"source":0
		}
	],
	"images":[
		{
			"mimeType":"image/jpeg",
			"name":"Image_0",
			"uri":"Image_0.jpg"
		}
	],
	"accessors":[
		{
			"bufferView":0,
			"componentType":5126,
			"count":79904,
			"max":[
				0.9514260292053223,
				0.21481500566005707,
				0.99965900182724
			],
			"min":[
				-0.9524239897727966,
				-0.21941199898719788,
				-1.0009100437164307
			],
			"type":"VEC3"
		},
		{
			"bufferView":1,
			"componentType":5126,
			"count":79904,
			"type":"VEC3"
		},
		{
			"bufferView":2,
			"componentType":5126,
			"count":79904,
			"type":"VEC2"
		},
		{
			"bufferView":3,
			"componentType":5125,
			"count":407793,
			"type":"SCALAR"
		}
	],
	"bufferViews":[
		{
			"buffer":0,
			"byteLength":958848,
			"byteOffset":0,
			"target":34962
		},
		{
			"buffer":0,
			"byteLength":958848,
			"byteOffset":958848,
			"target":34962
		},
		{
			"buffer":0,
			"byteLength":639232,
			"byteOffset":1917696,
			"target":34962
		},
		{
			"buffer":0,
			"byteLength":1631172,
			"byteOffset":2556928,
			"target":34963
		}
	],
	"samplers":[
		{
			"magFilter":9729,
			"minFilter":9987
		}
	],
	"buffers":[
		{
			"byteLength":4188100,
			"uri":"smart_glasses_0119130229_texture.bin"
		}
	]
}
